<?xml version="1.0" encoding="utf-8"?>
<!-- Generator: Adobe Illustrator 23.0.2, SVG Export Plug-In . SVG Version: 6.00 Build 0)  -->
<svg version="1.1" id="Layer_1" xmlns="http://www.w3.org/2000/svg" xmlns:xlink="http://www.w3.org/1999/xlink" x="0px" y="0px"
	 viewBox="0 0 249.4652 274.578" enable-background="new 0 0 249.4652 274.578" xml:space="preserve">
<g>
	<path d="M217.8048,177.2694c2.3904-1.8942,4.199-3.6935,5.5505-5.2462c2.6169-3.0066,3.5086-5.0815,3.5086-5.0815l-16.2502-21.7764
		c1.0966-0.8792,1.8154-1.4124,1.8154-1.4124l13.3169,17.845c10.5558-10.7958,15.06-22.2662,13.3716-34.1771
		c-3.1283-22.0717-26.3694-36.1846-35.6107-40.9766c-1.1509,0.1675-2.3146,0.2625-3.4843,0.268
		c-11.0981,0.0513-20.5516-7.2341-23.7543-17.2928c-12.0557-11.7758-19.9828-29.9567-13.157-59.6226
		c0.9907-4.3057-1.6968-8.5996-6.0024-9.5898c-4.3066-0.9951-8.5996,1.6953-9.5903,6.002
		c-6.1675,26.8057-2.5303,49.3252,10.811,66.9346c4.4293,5.8468,9.5045,10.5593,14.6376,14.4092
		c-0.2714,0.6091-0.5103,1.2396-0.6859,1.9052c-1.2725,4.8262-30.9185,118.8711-9.4023,176.959
		c1.8677,5.043,6.6431,8.1621,11.7231,8.1611c1.4419,0,2.9092-0.251,4.3403-0.7813c6.4736-2.3975,9.7778-9.5898,7.3799-16.0635
		c-7.8615-21.2234-7.4124-52.863-4.2147-82.558c3.2466-0.3182,6.6913-0.7324,10.0967-1.218
		c2.5197,30.1588,11.4517,64.9402,35.0198,94.2467c2.4692,3.0703,6.0923,4.667,9.7485,4.666c2.749,0,5.5166-0.9023,7.8257-2.7588
		c5.3799-4.3271,6.2339-12.1953,1.9072-17.5752C228.3456,229.7063,220.5462,202.1658,217.8048,177.2694z M216.6198,147.8786
		c0.2921-11.5443,1.386-21.4171,2.4229-28.4583c2.1761,3.2017,3.7225,6.6432,4.2332,10.2457
		C224.1139,135.5775,221.8727,141.6799,216.6198,147.8786z"/>
	<path d="M200.0121,84.412c12.4273-0.0599,22.4531-10.1796,22.3932-22.6069c-0.0579-12.4273-10.1775-22.4512-22.6049-22.3933
		c-12.4254,0.0578-22.4531,10.1796-22.3952,22.605C177.4651,74.444,187.5867,84.4697,200.0121,84.412z M205.0948,70.6299
		c-14.73,14.5923-22.2388-4.5356-22.2388-4.5356C191.0742,72.218,205.0948,70.6299,205.0948,70.6299z"/>
	<path d="M94.016,5.5809c-4.2827,1.085-6.875,5.4375-5.7896,9.7197c10.1014,39.8632-1.1534,53.9628-18.168,62.0487
		c-4.573,5.7304-11.6207,9.3992-19.5029,9.3628c-1.8743-0.0088-3.7339-0.2397-5.5448-0.6627
		c-7.0856,1.5532-16.0651,1.9976-21.7203-3.3699c-5.5342-5.2539-12.9272-21.0186-0.2563-67.5762
		c1.1602-4.2627-1.355-8.6592-5.6187-9.8193c-4.2607-1.166-8.6597,1.3535-9.8198,5.6182
		c-11.4883,42.2129-9.9575,69.4873,4.6797,83.3818c4.7304,4.4904,10.7157,7.2677,17.6423,8.3096
		c1.446,6.9401,18.5136,94.5357-26.0452,149.9424c-4.3267,5.3799-3.4727,13.248,1.9072,17.5752
		c2.3091,1.8564,5.0762,2.7588,7.8257,2.7588c3.6558,0,7.2793-1.5957,9.7485-4.666c23.0134-28.6166,32.1329-63.4543,34.9747-94.2532
		c3.4201,0.4884,6.8807,0.9049,10.1417,1.2245c3.1977,29.695,3.6468,61.3345-4.2145,82.558
		c-2.3979,6.4736,0.9063,13.666,7.3799,16.0635c1.4316,0.5303,2.8979,0.7813,4.3403,0.7813c5.0796,0,9.8555-3.1191,11.7231-8.1611
		c20.4584-55.2322-5.336-161.0458-9.0157-175.4658c6.8088-3.4194,13.2134-7.8738,18.3712-14.2471
		c11.9077-14.7139,14.0933-36.085,6.6816-65.333C102.6513,7.0878,98.3046,4.4989,94.016,5.5809z"/>
	<path d="M73.1729,62.0168c0.0578-12.4255-9.9698-22.5472-22.3953-22.605c-12.4274-0.0579-22.5471,9.966-22.6049,22.3933
		C28.1129,74.2324,38.1387,84.3521,50.566,84.412C62.9914,84.4697,73.113,74.444,73.1729,62.0168z M67.722,66.0943
		c0,0-7.5088,19.1279-22.2388,4.5356C45.4832,70.6299,59.5038,72.218,67.722,66.0943z"/>
</g>
</svg>
