<?xml version="1.0" encoding="utf-8"?>

<!DOCTYPE svg PUBLIC "-//W3C//DTD SVG 1.1//EN" "http://www.w3.org/Graphics/SVG/1.1/DTD/svg11.dtd">
<!-- Uploaded to: SVG Repo, www.svgrepo.com, Generator: SVG Repo Mixer Tools -->
<svg height="800px" width="800px" version="1.1" id="_x32_" xmlns="http://www.w3.org/2000/svg" xmlns:xlink="http://www.w3.org/1999/xlink" 
	 viewBox="0 0 512 512"  xml:space="preserve">
<style type="text/css">
	.st0{fill:#000000;}
</style>
<g>
	<path class="st0" d="M207.341,338.586c0-4.961,0-10.62,0-17.41c5.086-14.105,12.731-15.12,16.555-36.767
		c3.905-1.393,7.08-3.16,9.943-6.569c-2.222-4.388-4.388-9.46-6.162-15.491c-13.566-8.888-20.101-23.448-26.25-45.006
		c-4.299-15.043-3.478-27.712,2.429-37.663c1.228-2.07,2.664-3.975,4.278-5.707c-1.739-18.376-2.94-36.469-3.106-53.651
		c-0.538-0.117-0.973-0.324-1.518-0.421c-13.366-10.4-21.847-15.112-50.498-13.374c-18.142,0-31.929,4.002-51.14-1.49
		c-25.635,21.502-18.59,92.129-15.002,126.196c-4.513,1.015-12.29,5.204-7.315,22.607c6.362,22.289,11.455,27.381,20.363,30.569
		c3.83,21.647,15.464,28.603,16.306,36.767c0,11.882,0,20.542,0,27.477c0,10.476-17.085,19.308-29.727,23.766
		c-24.318,8.57-92.071,33.936-86.132,105.019h106.026C103.233,433.33,119.118,375.193,207.341,338.586z"/>
	<path class="st0" d="M409.134,352.545c-16.527-6.183-35.358-15.809-35.358-28.264c0-8.246,0-18.549,0-32.681
		c6.052-16.775,15.146-17.976,19.694-43.722c10.599-3.788,16.658-9.847,24.228-36.352c5.686-19.95-2.691-25.305-8.115-26.733
		c0.11-1.063,0.221-2.132,0.31-3.388c2.05-29.879,19.397-118.572-40.665-129.171c-15.899-12.366-25.987-17.969-60.062-15.899
		c-21.571-0.007-37.966,4.755-60.814-1.774c-30.487,25.574-22.109,109.56-17.845,150.08c-5.362,1.201-14.609,6.183-8.695,26.885
		c7.563,26.505,13.622,32.564,24.221,36.352c4.547,25.746,18.382,34.013,19.39,43.722c0,14.132,0,24.434,0,32.681
		c0,12.456-20.322,22.965-35.358,28.264c-28.92,10.192-109.491,40.361-102.432,124.893h383.932
		C518.624,392.906,437.853,363.289,409.134,352.545z"/>
</g>
</svg>